# xmcd
#
# Track frame offsets:
#	150
#	13194
#	31452
#	48304
#	66757
#	80263
#	94494
#	107970
#	125198
#	142367
#	155381
#	169073
#	187728
#	205633
#	223655
#	247028
#	262900
#	280721
#	297202
#	313685
#
# Disc length: 4429 seconds
#
# Revision: 0
# Processed by: cddbd v1.5.2PL0 Copyright (c) Steve Scherf et al.
# Submitted via: EasyCDDAExtractor 15.3.0.1
#
DISCID=2c114b14
DTITLE=Various Artist - Star Maker 08
DYEAR=2008
DGENRE=Country
TTITLE0=Victoria Bailie - Lord Don't Take Me Yet
TTITLE1=Owen Hogan - Northen Tablelands Express
TTITLE2=Kimberley Bowden - Take the Weight of My Heart
TTITLE3=Adam James - The Country Singer
TTITLE4=Talia Whitmann - Kerosene
TTITLE5=Amanda Halloran - I Should have known
TTITLE6=Benn Gunn - Thank God I'm a Country Boy
TTITLE7=Christy Kilpatrick - Wish You Were Here
TTITLE8=Candice Long - Run Baby
TTITLE9=Ryan Sampson - Super Cool Croc
TTITLE10=Dean Johnston - The Wild Side
TTITLE11=Sarah McMongle - Best Mates
TTITLE12=Sera-Jane Moore - In My Town
TTITLE13=Troy Fogg - Bring Me Down
TTITLE14=Rosie Sutherland - Sometimes
TTITLE15=Ball Aitken - Cowboy Movie
TTITLE16=Cassandra Smiles - All I need
TTITLE17=Taryn Trautsch - Holding You
TTITLE18=Daisy-May Wegner - Stronger, Bigger and Better
TTITLE19=Michael Muchow - Your Fool
EXTD=
EXTT0=
EXTT1=
EXTT2=
EXTT3=
EXTT4=
EXTT5=
EXTT6=
EXTT7=
EXTT8=
EXTT9=
EXTT10=
EXTT11=
EXTT12=
EXTT13=
EXTT14=
EXTT15=
EXTT16=
EXTT17=
EXTT18=
EXTT19=
PLAYORDER=
